<?xml version="1.0" standalone="no"?><!DOCTYPE svg PUBLIC "-//W3C//DTD SVG 1.1//EN" "http://www.w3.org/Graphics/SVG/1.1/DTD/svg11.dtd"><svg class="icon" height="512" viewBox="0 0 1024 1024" version="1.1" xmlns="http://www.w3.org/2000/svg"><path d="M996.864 471.04h-33.28C944.128 246.784 759.296 69.12 532.48 58.368v-31.744c0-11.776-13.824-21.504-30.72-21.504s-30.72 9.728-30.72 21.504v33.28c-217.088 19.456-391.68 193.536-410.624 411.136h-33.28c-11.776 0-21.504 13.824-21.504 30.72 0 17.408 9.728 30.72 21.504 30.72h31.744c10.752 226.816 188.416 410.624 412.672 431.104v33.28c0 11.776 13.824 21.504 30.72 21.504 17.408 0 30.72-9.728 30.72-21.504V965.632c233.472-10.752 421.376-198.656 432.128-432.128h31.744c11.776 0 21.504-13.824 21.504-30.72 0-17.92-9.728-31.744-21.504-31.744z m-90.112 0h-134.144C753.664 351.744 655.36 258.56 532.992 248.832V119.296c194.56 9.216 353.28 160.256 373.76 351.744z m-435.712 0h-158.72c16.384-78.848 78.848-141.824 158.72-157.696v157.696z m0 61.952v177.664c-86.016-17.408-152.576-89.088-161.792-177.664H471.04z m61.952 0h179.712c-9.728 94.72-84.992 170.496-179.712 180.736V532.992z m0-61.952V310.784c88.064 9.216 159.744 75.264 176.64 160.768 0-0.512-176.64-0.512-176.64-0.512zM471.04 121.344v130.048c-113.152 17.408-202.752 107.008-220.16 219.648h-129.536c19.456-183.808 165.888-330.24 349.696-349.696z m-351.744 411.648h129.536c9.728 121.856 102.912 220.672 222.208 239.616v134.144c-191.488-20.48-343.04-179.2-351.744-373.76z m413.696 375.296v-133.632c128.512-10.24 231.424-113.152 241.664-241.664H908.288c-9.728 202.752-172.544 366.08-375.296 375.296z" /></svg>